<svg width="14" height="11" viewBox="0 0 14 11" fill="none" xmlns="http://www.w3.org/2000/svg">
<path fill-rule="evenodd" clip-rule="evenodd" d="M7.89418 1.63511C6.72718 2.12011 4.39418 3.12511 0.896182 4.64911C0.328182 4.87511 0.0301819 5.09611 0.00318189 5.31211C-0.0428181 5.67811 0.415182 5.82211 1.03718 6.01711C1.12218 6.04411 1.21018 6.07111 1.30018 6.10111C1.91318 6.30011 2.73718 6.53311 3.16518 6.54211C3.55418 6.55011 3.98818 6.39011 4.46718 6.06211C7.73518 3.85511 9.42218 2.74011 9.52818 2.71611C9.60318 2.69911 9.70718 2.67711 9.77718 2.74011C9.84718 2.80211 9.84018 2.92011 9.83318 2.95211C9.78718 3.14511 7.99318 4.81411 7.06318 5.67811C6.77318 5.94711 6.56818 6.13811 6.52618 6.18211C6.43218 6.27911 6.33618 6.37211 6.24418 6.46111C5.67418 7.00911 5.24818 7.42111 6.26818 8.09311C6.75818 8.41611 7.15018 8.68311 7.54118 8.94911C7.96818 9.24011 8.39418 9.53011 8.94618 9.89211C9.08618 9.98411 9.22018 10.0791 9.35118 10.1721C9.84818 10.5271 10.2952 10.8451 10.8472 10.7951C11.1672 10.7651 11.4992 10.4641 11.6672 9.56511C12.0642 7.43911 12.8462 2.83511 13.0272 0.937108C13.0382 0.779522 13.0315 0.621198 13.0072 0.465108C12.9926 0.339039 12.9312 0.223039 12.8352 0.140108C12.6922 0.0231079 12.4702 -0.00189199 12.3702 0.000108012C11.9192 0.00810801 11.2272 0.249108 7.89418 1.63511V1.63511Z" fill="white"/>
</svg>
